<svg width="1390" height="285" viewBox="0 0 1390 285" fill="none" xmlns="http://www.w3.org/2000/svg">
<path d="M837.602 160.2C837.602 143 837.602 125.7 837.602 108.5C837.602 106.4 838.202 105.9 840.202 105.9C847.802 106 855.402 106 862.902 105.9C864.402 105.9 864.902 106.2 864.902 107.8C864.902 110.5 865.202 113.3 865.502 116C865.502 116.5 865.402 117.1 866.002 117.3C866.602 117.5 866.802 116.9 867.102 116.5C876.002 106.8 887.202 103.3 900.002 104C910.902 104.7 919.802 108.9 925.102 119C926.202 121.2 926.702 119.3 927.102 118.7C939.002 102.7 960.602 100.9 975.102 107.1C984.702 111.1 989.302 119.2 991.702 128.8C992.902 133.5 993.402 138.3 993.402 143.1C993.402 166.1 993.402 189.1 993.502 212.1C993.502 213.8 993.302 214.5 991.302 214.5C983.102 214.4 974.802 214.4 966.602 214.5C964.702 214.5 964.302 214 964.302 212.2C964.402 189.1 964.302 166 964.402 143C964.402 140.8 964.102 138.7 963.402 136.6C961.902 131.6 958.502 128.7 953.302 127.9C947.202 127 941.302 127.1 936.202 131.3C932.202 134.6 929.802 138.5 929.902 144.1C930.202 166.7 930.102 189.3 930.202 211.8C930.202 214.1 929.602 214.5 927.502 214.5C919.502 214.4 911.502 214.4 903.502 214.5C901.602 214.5 901.102 214.1 901.202 212.2C901.302 190.9 901.302 169.5 901.202 148.2C901.202 144.4 901.202 140.5 900.202 136.8C898.602 130.9 894.302 128.2 888.502 127.6C880.302 126.8 873.102 128.4 868.102 135.7C867.202 137 866.802 138.3 866.802 139.9C866.802 163.9 866.802 187.9 866.902 211.9C866.902 213.9 866.502 214.5 864.302 214.5C856.202 214.4 848.102 214.4 840.102 214.5C838.202 214.5 837.802 214 837.802 212.2C837.702 194.9 837.602 177.5 837.602 160.2Z" fill="#fff"/>
<path d="M343.901 141.4C343.901 117.8 343.901 94.1996 343.801 70.6996C343.801 68.6996 344.301 68.1996 346.301 68.1996C354.601 68.2996 363.001 68.2996 371.301 68.1996C373.301 68.1996 373.901 68.5996 373.901 70.6996C373.801 88.7996 373.901 106.9 373.801 124.9C373.801 127.2 374.401 127.6 376.601 127.6C394.401 127.5 412.301 127.5 430.101 127.6C432.201 127.6 432.901 127.3 432.901 124.9C432.801 106.8 432.901 88.6996 432.801 70.6996C432.801 68.5996 433.301 68.0996 435.401 68.0996C443.701 68.1996 452.101 68.1996 460.401 68.0996C462.201 68.0996 462.901 68.3996 462.901 70.4996C462.801 117.7 462.801 164.8 462.901 212C462.901 214 462.301 214.4 460.401 214.4C451.901 214.3 443.401 214.3 434.901 214.4C433.101 214.4 432.801 213.9 432.801 212.2C432.901 192.9 432.801 173.5 432.901 154.2C432.901 152.2 432.401 151.5 430.301 151.5C412.401 151.6 394.501 151.6 376.601 151.5C374.301 151.5 373.901 152.3 373.901 154.3C374.001 173.5 373.901 192.6 374.001 211.8C374.001 213.9 373.501 214.4 371.401 214.4C363.101 214.3 354.701 214.3 346.401 214.4C344.201 214.4 343.901 213.8 343.901 211.8C343.901 188.4 343.901 164.9 343.901 141.4Z" fill="#fff"/>
<path d="M493.199 159.3C493.199 149.5 493.099 139.6 493.299 129.8C493.299 127.7 492.699 127.1 490.599 127.2C486.799 127.4 482.899 127.2 479.099 127.3C477.699 127.3 477.199 126.9 477.199 125.5C477.299 119.6 477.299 113.7 477.199 107.8C477.199 106.4 477.599 105.9 479.099 106C482.999 106.1 486.899 106 490.799 106.1C492.599 106.2 493.199 105.7 493.199 103.7C493.099 96.3004 493.199 88.9004 493.099 81.5004C493.099 79.6004 493.799 79.4004 495.399 79.4004C503.599 79.5004 511.699 79.5004 519.899 79.4004C521.599 79.4004 522.199 79.8004 522.099 81.6004C521.999 88.9004 522.099 96.3004 521.999 103.6C521.999 105.5 522.499 106.2 524.499 106.2C529.199 106.1 533.799 106.2 538.499 106.1C539.999 106.1 540.499 106.3 540.499 108C540.399 113.9 540.399 119.8 540.499 125.7C540.499 127.2 539.999 127.5 538.599 127.5C533.799 127.4 528.899 127.5 524.099 127.4C522.499 127.4 521.999 127.9 521.999 129.6C521.999 147.3 521.999 165.1 522.099 182.8C522.099 189.9 525.399 192.9 532.499 193C534.899 193 537.299 193.1 539.699 192.6C541.099 192.3 541.799 192.5 541.799 194.2C541.699 200.3 541.699 206.4 541.799 212.4C541.799 213.5 541.699 214.3 540.399 214.6C530.699 216.9 520.999 217.8 511.299 214.9C500.999 211.8 495.699 204.1 493.899 193.8C492.399 185 493.399 176.2 493.199 167.4C493.099 164.6 493.199 161.9 493.199 159.3Z" fill="#fff"/>
<path d="M1273.5 160.2C1273.5 177.4 1273.4 194.7 1273.6 211.9C1273.6 214.2 1272.9 214.6 1270.8 214.6C1262.7 214.5 1254.6 214.5 1246.6 214.6C1245 214.6 1244.5 214.3 1244.5 212.6C1244.6 177.8 1244.5 143 1244.5 108.2C1244.5 106.7 1244.8 106 1246.5 106C1254.9 106.1 1263.3 106.1 1271.7 106C1273.8 106 1273.4 107.2 1273.4 108.4C1273.5 125.5 1273.5 142.9 1273.5 160.2Z" fill="#fff"/>
<path d="M1258.9 62.9004C1265.1 62.9004 1270.3 64.8004 1273.4 70.3004C1276.2 75.3004 1276.2 80.5004 1273.3 85.5004C1269.8 91.7004 1261.2 94.5004 1253.3 92.0004C1245.9 89.7004 1242.5 83.7004 1242.9 76.6004C1243.4 67.8004 1250.1 63.4004 1256.8 63.0004C1257.6 63.0004 1258.3 62.9004 1258.9 62.9004Z" fill="#fff"/>
<path d="M1220.5 62.6004C1220.5 60.8004 1219.9 60.4004 1218.2 60.4004C1210 60.5004 1201.9 60.5004 1193.7 60.4004C1191.7 60.4004 1191.2 60.9004 1191.2 62.9004C1191.3 79.4004 1191.3 95.9004 1191.2 112.4C1191.2 113.3 1191.5 114.2 1190.9 115.1C1189 113.5 1187.2 111.7 1185.2 110.3C1174.2 102.6 1162.2 102.2 1150 106.7C1137.9 111.2 1130.7 120.7 1126.8 132.5C1120.6 150.9 1120.7 169.6 1126.9 187.9C1132.4 204.1 1143.3 214.9 1161.3 216.5C1170.8 217.3 1179.5 215.2 1186.9 209.1C1188.9 207.4 1190.7 205.5 1192.8 203.5C1193.2 206.8 1193.8 209.8 1194 212.9C1194.1 214.6 1194.7 214.7 1196.1 214.7C1203.5 214.6 1210.9 214.6 1218.3 214.7C1219.9 214.7 1220.4 214.3 1220.4 212.7C1220.5 162.5 1220.5 112.5 1220.5 62.6004ZM1184.7 189.7C1172.5 197.8 1158.2 192.3 1153.7 177.9C1151.5 170.7 1151.5 163.4 1151.7 156C1151.9 150.1 1152.9 144.5 1155.2 139C1158.2 132.1 1163.3 127.9 1170.9 127.5C1179 127 1185.8 129.5 1190.2 136.8C1190.9 137.9 1191.2 139 1191.2 140.3C1191.2 147 1191.2 153.6 1191.2 160.3C1191.2 166.1 1190.9 172 1191.3 177.8C1191.8 183.4 1188.9 187 1184.7 189.7Z" fill="#fff"/>
<path d="M1389.6 212.4C1385.9 204.6 1385.6 196.2 1385.5 187.8C1385.4 172.1 1385.6 156.5 1385.4 140.8C1385.3 126.4 1379 115.7 1366 109C1360.4 106.2 1354.5 104.7 1348.3 104.2C1334 103 1320.4 105.3 1308.5 114C1301.1 119.5 1296.7 126.9 1295.7 136.2C1295.5 137.8 1295.9 138.5 1297.8 138.5C1306 138.4 1314.3 138.4 1322.5 138.5C1324.3 138.5 1324.6 138 1324.8 136.3C1325.1 132.6 1327 129.8 1330.2 127.8C1333.2 125.9 1336.6 125.3 1340 125.3C1345.6 125.3 1350.7 126.6 1353.9 131.9C1356.9 136.8 1356.5 142.1 1356.4 147.4C1356.4 148.7 1355.2 148.3 1354.5 148.4C1350 148.4 1345.5 148.4 1341 148.4C1333.6 148.3 1326.4 149.3 1319.3 151.3C1304.3 155.7 1294.5 165 1293.3 180.9C1292.6 190.2 1294.9 198.6 1301.7 205.3C1312.7 216.3 1326.1 218.3 1340.6 215.2C1347.2 213.8 1352.6 210.1 1357.4 205C1358.3 207.8 1359 210.2 1359.8 212.7C1360.2 214 1360.8 214.5 1362.3 214.5C1370.9 214.4 1379.5 214.4 1388 214.5C1389.9 214.5 1390.4 214 1389.6 212.4ZM1353.1 188.4C1347.5 193.4 1340.8 195.2 1333.4 194.2C1322.6 192.6 1319.9 182.4 1324.3 174C1327.4 168.2 1333 166.3 1339.1 165.6C1344.3 164.9 1349.6 165 1354.8 165C1356.2 165 1356.7 165.4 1356.7 166.9C1356.7 168.2 1356.7 169.6 1356.7 170.9C1356.7 172.2 1356.7 173.6 1356.7 174.9C1356.7 176.6 1356.5 178.4 1356.7 180.1C1357.2 183.7 1355.5 186.2 1353.1 188.4Z" fill="#fff"/>
<path d="M1108.8 140.2C1106.2 129.2 1101.2 119.7 1092 112.8C1083.9 106.7 1074.6 104.2 1064.7 104C1036 103.4 1017.4 121.1 1012.8 148.6C1011.5 156.4 1011.7 164.3 1012.7 172.2C1014.9 189.5 1023.5 202.5 1039.1 210.6C1052.5 217.5 1066.8 218.1 1081.3 214.7C1091.6 212.3 1100.3 207.1 1107.1 198.7C1108 197.5 1108.2 196.8 1107.1 195.6C1102.8 190.9 1098.5 186.1 1094.3 181.3C1094.1 181.4 1094 181.4 1094 181.4C1093.6 181.7 1093.3 182.1 1093 182.5C1086.8 189.6 1078.8 192.9 1069.6 193.3C1055.3 193.9 1044.7 185.6 1041.9 172C1041.4 169.8 1042.1 169.6 1044 169.6C1056.8 169.7 1069.7 169.6 1082.5 169.6C1091.2 169.6 1100 169.6 1108.7 169.6C1109.7 169.6 1110.7 169.9 1110.6 168.2C1110.3 158.9 1111 149.4 1108.8 140.2ZM1079.9 149.9C1073.9 149.9 1067.9 149.9 1061.9 149.9C1055.8 149.9 1049.8 149.9 1043.7 149.9C1042.7 149.9 1041.6 150.1 1041.9 148.5C1043.1 141.6 1045.2 135.1 1051.2 131C1058.2 126.1 1065.9 126.1 1073.1 130C1080.3 133.8 1082.1 140.8 1082 148.5C1082 150 1081 149.9 1079.9 149.9Z" fill="#fff"/>
<path d="M767.5 146.5C765.7 135.9 761.5 126.4 753.9 118.5C744.3 108.6 732.4 104.5 718.9 103.9C696.5 103 677.7 114.6 670.3 134C664 150.7 663.9 167.7 669.6 184.6C674.2 198.2 683.3 207.8 696.7 213.1C706.8 217.1 717.4 217.4 728 215.7C741.8 213.4 752.5 206.3 760 194.6C766.6 184.3 768.5 172.8 768.6 161.8C768.5 155.9 768.3 151.2 767.5 146.5ZM737.7 176.3C735.4 184.6 730.8 191 721.9 192.7C709.6 195 700.2 189.5 696.9 177.4C693.4 164.7 693.4 151.7 698.6 139.3C701.5 132.4 706.9 128.2 714.6 127.5C723 126.8 729.8 129.4 734.4 136.8C737.7 141.9 738.8 147.7 739.4 153.6C739.6 155.7 739.4 157.9 739.4 160.1C739.6 165.5 739.2 171 737.7 176.3Z" fill="#fff"/>
<path d="M650.401 142.9C647.101 128.4 639.401 117 626.101 109.9C615.701 104.3 604.501 102.9 592.901 104.5C573.401 107.1 559.901 117.5 553.201 136C547.601 151.6 547.701 167.5 552.601 183.3C556.901 197 565.701 207.1 579.101 212.7C589.601 217.1 600.501 217.6 611.701 215.7C624.401 213.6 634.501 207.4 642.001 196.9C649.801 186.1 652.101 173.8 652.201 160.9C652.401 154.7 651.801 148.8 650.401 142.9ZM623.301 158.2C623.201 167.6 622.701 175.4 619.001 182.4C614.901 190.2 608.201 193.7 599.501 193.3C590.701 192.9 584.801 188.2 581.401 180.2C577.801 171.7 578.001 162.7 578.601 153.7C578.901 149.5 579.801 145.3 581.301 141.3C584.801 132.2 591.701 127.3 601.001 127.4C610.401 127.6 617.501 132.9 620.601 141.9C622.701 147.8 623.501 153.7 623.301 158.2Z" fill="#fff"/>
<path d="M215.596 86.5656C227.625 81.5135 239.894 77.2632 252.244 73.1734C256.654 71.73 257.296 70.8478 257.296 66.1165C257.296 49.5166 257.296 32.8365 257.296 16.2366C257.296 11.9864 257.296 7.65599 257.296 3.40578C257.296 1.80193 256.654 0.839615 254.89 1.08019C254.168 1.08019 253.447 1 252.725 1C175.499 1 98.1935 1 20.968 1C20.2462 1 19.5245 1.08019 18.8028 1.08019C13.3497 1.08019 8.05696 1 2.68405 1C1.80193 1 1.16039 1.24058 1.08019 2.28308C1 3.56617 1 4.84925 1 6.05214C1 87.7685 1 169.405 1 251.041C1 251.923 1.08019 252.805 1.08019 253.607C0.919807 256.013 1.32077 256.734 3.40578 256.815C7.17484 256.895 10.9439 256.734 14.713 256.734C20.0859 256.734 25.4588 256.654 30.9119 256.654C33.879 256.895 36.8461 257.135 39.7331 257.296C40.4548 257.376 41.3369 257.296 41.5775 256.334C42.3794 255.532 42.1388 254.489 42.1388 253.527C42.1388 248.635 42.0587 243.743 42.0587 238.932C42.0587 230.03 42.0587 221.129 42.0587 212.308C42.0587 211.827 42.5398 210.944 41.4973 210.784C28.7467 221.69 17.0385 233.799 7.49561 247.753C6.13233 249.758 5.81156 250.159 4.20771 250.72C5.81156 246.71 8.05696 243.102 10.2222 239.573C18.4018 226.021 28.1853 213.751 38.6906 201.963C40.134 200.279 41.6577 198.675 41.8983 196.349C41.9785 195.547 42.0587 194.746 42.0587 193.944C42.0587 169.084 42.0587 144.224 42.0587 119.364C42.0587 114.713 42.1388 109.982 42.1388 105.331C42.7002 103.967 43.4219 102.684 44.4644 101.642C58.2576 87.8487 72.1309 73.9753 86.0043 60.102C86.6458 59.4605 87.2873 58.9793 88.1695 58.8189C88.1695 59.3803 88.2497 59.8614 88.2497 60.4228C88.2497 90.9762 88.2497 121.61 88.2497 152.163C88.2497 153.126 88.2496 154.168 88.3298 155.13C88.41 156.253 88.8912 155.772 89.2922 155.371C94.8254 151.441 100.359 147.512 105.972 143.663C120.728 133.559 135.964 124.096 151.923 115.916C153.687 115.034 155.05 113.911 155.05 111.666C155.05 101.241 155.05 90.8158 155.05 80.3908C155.05 79.0275 155.05 77.6642 155.05 76.3811C155.13 73.2536 155.13 70.2063 155.211 67.0788C155.852 65.6353 156.734 64.5126 157.857 63.3899C175.259 45.9881 192.661 28.5863 210.062 11.2647C210.544 10.7835 211.025 9.8212 211.987 10.7033C211.987 28.5061 211.907 46.2287 211.907 64.0315C211.907 70.6874 211.987 77.4236 211.987 84.0796C211.586 87.1269 212.468 87.8487 215.596 86.5656Z" fill="#1A3CDB"/>
<path d="M154.971 210.785C154.971 207.817 154.971 204.931 154.971 201.963C154.971 196.35 154.971 190.736 154.971 185.123C154.971 172.533 154.971 160.023 154.971 147.432C154.009 146.31 152.886 146.711 151.764 147.112C145.99 149.277 140.136 151.442 134.362 153.768C119.366 159.782 104.931 166.999 90.8173 174.938C88.8125 176.141 87.8502 177.505 87.9304 179.91C88.0908 184.161 88.0106 188.491 88.0106 192.741C88.0106 218.884 88.0106 244.947 88.0106 271.089C88.0106 274.297 88.0106 277.505 88.0106 281.114C88.9729 280.071 89.0531 279.269 89.2135 278.467C90.8173 272.533 92.4212 266.599 93.8647 260.664C94.3458 258.82 95.2279 257.537 97.1526 257.136C99.7989 257.136 102.445 257.136 105.092 257.136C110.625 257.537 116.158 257.216 121.611 257.296C124.498 257.296 127.465 257.537 130.352 257.136C133.239 257.136 136.206 257.056 139.093 257.056C143.905 256.976 148.797 257.296 153.608 256.895C154.33 256.815 154.731 256.414 154.811 255.692C154.811 253.607 154.891 251.522 154.891 249.518C154.891 239.173 154.811 228.828 154.811 218.483C154.971 215.837 154.971 213.351 154.971 210.785Z" fill="#1A3CDB"/>
<path d="M281.598 121.289C279.833 121.129 278.23 122.091 276.545 122.011C273.258 121.851 270.05 122.252 266.842 122.492C265.559 122.572 262.432 123.374 261.229 123.294C257.139 123.134 255.054 123.936 250.964 124.337C246.233 124.738 241.581 125.54 236.93 126.181C229.232 127.224 221.613 128.507 214.075 130.191C212.311 130.592 211.589 131.554 212.071 133.398C212.071 135.483 212.071 137.569 212.071 139.573C212.071 157.055 211.99 174.537 211.99 192.1C211.99 202.043 211.99 211.987 212.071 221.931C211.99 222.653 211.91 223.375 211.91 224.096C211.91 242.3 211.91 260.424 211.91 278.627C211.91 279.429 211.91 280.231 211.91 281.274C212.712 280.392 212.872 279.67 213.033 278.948C214.637 272.934 216.241 267 217.764 260.905C218.245 259.06 219.127 257.777 221.052 257.296C232.039 257.376 243.105 257.376 254.092 257.457C254.974 257.457 256.016 257.617 256.738 256.815C257.46 256.093 257.379 255.211 257.299 254.329C257.299 253.527 257.379 252.725 257.379 251.923C257.379 233.639 257.379 215.275 257.379 196.991C257.379 196.189 257.299 195.387 257.299 194.586C257.299 193.784 257.379 192.982 257.379 192.18C257.379 174.457 257.379 156.654 257.379 138.932C257.379 136.125 258.422 134.2 260.748 132.597C266.281 128.747 272.295 125.86 278.55 123.615C280.315 122.973 281.999 122.252 284.003 121.45C282.881 121.049 282.239 121.37 281.598 121.289Z" fill="#1A3CDB"/>
</svg>
